.      *********** ****    ****      ***      ******** *********** ****    *** **********
           *+*     +*+*+* *+*+*+   *+* *+*   *+*    *+*    *+*     *+*+*   *+* *+*        
           +*+     +*+ +*+*+ +*+  +*+   +*+  +*+           +*+     *+*+*+  +*+ +*+        
           +$+     +$+  +*+  +$+ +$++*++$++* *$*           +$+     +$+ +*+ +$+ +$++*++$  
           +$+     +$+       +$+ +$+     +$+ +$+   +$+$    +$+     +$+  +$+$+$ +$+        
           $+$     $+$       $+$ $+$     $+$ $+$    $+$    $+$     $+$   $+$+$ $+$        
       $$$$$$$$$$$ $$$       $$$ $$$     $$$  $$$$$$$$ $$$$$$$$$$$ $$$    $$$$ $$$$$$$$$$




Another Fine Release Brought to you from - IMAGiNE


********************************************************************************************************************
The A-Team 2010 TS V2 READNFO XViD - IMAGiNE
********************************************************************************************************************

Ripper ...........: IMAGiNE IMDB Rating.......:7.2/10
Video Codec.......: XVID Release Date......:13/06/10
Audio Codec.......:MP3 Theatre Date......:11/06/10
Audio Bitrate.....:128 Runtime.......:1h 47mn
Subtitles.........:ENG WHEN NEEDED Language..........:ENGLISH
Resolution...... 640 x 272 IMDb URL..........:http://www.imdb.com/title/tt0429493/



DETAILS:

Video
ID : 0
Format : MPEG-4 Visual
Format profile : Advanced Simple@L5
Format settings, BVOP : Yes
Format settings, QPel : No
Format settings, GMC : No warppoints
Format settings, Matrix : Default (MPEG)
Muxing mode : Packed bitstream
Codec ID : XVID
Codec ID/Hint : XviD
Duration : 1h 47mn
Bit rate : 1 697 Kbps
Width : 640 pixels
Height : 272 pixels
Display aspect ratio : 2.35
Frame rate : 25.000 fps
Resolution : 24 bits
Colorimetry : 4:2:0
Scan type : Progressive
Bits/(Pixel*Frame) : 0.390
Stream size : 1.28 GiB (92%)
Writing library : XviD 1.2.1 (UTC 2008-12-04)

Audio
ID : 1
Format : MPEG Audio
Format version : Version 1
Format profile : Layer 3
Codec ID : 55
Codec ID/Hint : MP3
Duration : 1h 47mn
Bit rate mode : Constant
Bit rate : 128 Kbps
Channel(s) : 2 channels
Sampling rate : 44.1 KHz
Resolution : 16 bits
Stream size : 98.5 MiB (7%)
Alignment : Split accross interleaves
Interleave, duration : 40 ms (1.00 video frame)
Interleave, preload duration : 500 ms
Writing library : LAME3.96r
Encoding settings : -m j -V 4 -q 3 -lowpass 17.5 -b 128


NOTES:

IMAGiNE bringing you another release.....The A-Team 2010 TS V2

OK sources used relizlab video and some sweet line audio from TA ,thanks to both 
Also a special mention to 66Butch for syncing this one ,cheers bro 
Now why a v2???because we always do a v2 :lol: ,well the real reason is because we spent all morning creating
our own subpack for this....so now all non english parts have hardcoded english subs 
Also we slightly changed the filtering and AR......firstly the AR,nothing wrong really with our first one but this res on this
only gives you a 0.1% AR error compared to 0.9% on the other ....so no major difference really.
The filtering....well we tried to make it a touch sharper and also remove some of that yellow.



GREETS:

FLAWL3SS,ViSiON,FUSiON,Rx,SecretMyth,BirdFlu,ELEKTRI4KA and Autotron
And to all the other p2p grps past and present

Special thanks to Python-Lair for the server 
And special thanks to supreme-speeds.com for the ripbox 
Also to The Scene Nation for all their help 
Last but not least thanks to 66Butch for his help



Screenshots
 
http://postimg.com/image/17000/16299.jpg
 
http://postimg.com/image/17000/16300.jpg

Anyway this is for those that wanted a subbed version.......enjoy you fool!!